<?xml version="1.0" standalone="no"?>
<!DOCTYPE svg PUBLIC "-//W3C//DTD SVG 20010904//EN"
 "http://www.w3.org/TR/2001/REC-SVG-20010904/DTD/svg10.dtd">
<svg version="1.0" xmlns="http://www.w3.org/2000/svg"
 width="655.000000pt" height="416.000000pt" viewBox="0 0 655.000000 416.000000"
 preserveAspectRatio="xMidYMid meet">

<g transform="translate(0.000000,416.000000) scale(0.100000,-0.100000)"
fill="#000000" stroke="none">
<path d="M0 2080 l0 -2080 3275 0 3275 0 0 2068 c0 1595 -3 2071 -12 2080 -9
9 -750 12 -3275 12 l-3263 0 0 -2080z m2053 249 c50 -13 44 -21 -7 -9 -44 10
-86 -2 -86 -24 0 -38 114 -95 166 -82 34 9 32 48 -3 76 -18 13 -20 17 -7 11
11 -5 26 -16 31 -23 6 -7 36 -14 67 -16 50 -3 56 -1 56 16 0 24 28 32 72 22
l33 -8 -38 -1 c-42 -1 -57 -21 -36 -47 21 -26 86 -54 125 -54 36 0 36 1 30 33
-5 30 -5 31 9 12 25 -32 15 -50 -30 -53 -23 -2 -51 1 -65 6 -20 7 -28 3 -53
-25 l-30 -34 20 -20 c14 -15 37 -22 77 -25 52 -3 57 -2 51 15 -3 11 1 26 11
36 15 14 15 18 3 26 -8 5 -9 9 -3 9 6 0 17 -7 24 -15 7 -8 24 -15 39 -15 38 0
128 -55 146 -89 13 -27 13 -31 -2 -46 -15 -16 -48 -16 -105 1 -12 3 -24 -10
-45 -47 l-28 -52 43 -42 c87 -87 35 -158 -90 -121 -30 8 -72 31 -95 51 -41 35
-45 36 -110 33 l-68 -3 3 -31 c3 -24 -2 -36 -22 -52 -63 -49 -184 -32 -255 36
-65 61 -65 126 0 153 34 14 34 13 9 49 -14 19 -32 30 -58 35 -52 9 -122 46
-145 77 -53 71 43 123 163 87 34 -10 41 -9 86 21 l49 33 -27 28 c-32 32 -34
42 -12 63 18 19 53 20 107 5z m1435 -188 c9 -5 11 -17 6 -34 -6 -25 -24 -38
-24 -18 0 17 -34 22 -48 7 -13 -13 -9 -18 32 -43 67 -40 75 -88 23 -127 -21
-15 -42 -21 -78 -19 -28 0 -52 3 -55 5 -2 3 1 19 7 37 11 30 12 31 29 16 10
-9 27 -15 37 -13 25 5 28 35 4 43 -71 22 -95 94 -45 134 27 22 87 28 112 12z
m198 -4 c3 -3 2 -16 -1 -30 -7 -25 -8 -26 -31 -10 -19 12 -27 13 -39 3 -19
-16 -12 -26 36 -51 45 -23 60 -52 47 -90 -11 -33 -49 -54 -97 -53 -60 0 -72 8
-59 42 10 26 14 28 26 16 17 -18 46 -18 61 0 10 12 7 18 -13 30 -14 9 -37 23
-51 31 -45 27 -30 96 25 118 16 7 88 2 96 -6z m-626 -25 c0 -26 -3 -28 -31
-24 l-31 5 3 -92 4 -91 -40 0 -40 0 3 91 3 92 -30 -6 c-29 -6 -31 -5 -31 23
l0 30 95 0 95 0 0 -28z m219 -74 c18 -57 38 -109 43 -115 8 -10 0 -13 -36 -13
-39 0 -46 3 -46 20 0 17 -7 20 -40 20 -33 0 -40 -3 -40 -20 0 -17 -7 -20 -45
-20 l-46 0 15 28 c7 15 26 66 41 115 l27 87 47 0 47 0 33 -102z m526 -13 l0
-115 -43 0 c-41 0 -42 1 -31 21 7 14 10 56 7 115 l-4 94 36 0 35 0 0 -115z
m205 88 c0 -27 -1 -28 -50 -25 -46 4 -50 2 -50 -18 0 -19 4 -22 35 -18 34 4
35 3 35 -28 0 -32 -1 -33 -35 -27 -31 5 -35 3 -35 -17 0 -21 3 -22 50 -18 49
5 50 5 50 -23 l0 -29 -89 0 -90 0 11 31 c6 17 8 68 6 115 l-4 84 83 0 83 0 0
-27z m184 -15 c4 -24 12 -61 18 -83 l11 -40 13 50 c10 35 11 58 4 79 -6 16
-10 31 -10 32 0 2 18 4 41 4 22 0 38 -4 35 -8 -4 -7 21 -142 28 -150 2 -2 12
33 21 77 l18 81 34 0 c24 0 33 -4 30 -12 -3 -7 -18 -59 -33 -115 l-28 -103
-43 0 c-34 0 -43 4 -43 18 0 9 -5 24 -10 32 -7 12 -11 8 -16 -17 -6 -31 -9
-33 -50 -33 -37 0 -44 3 -44 20 0 24 -39 168 -52 193 -8 15 -4 17 30 17 39 0
40 -1 46 -42z m446 12 c0 -28 -2 -29 -26 -20 -14 6 -36 10 -50 10 -20 0 -24
-5 -24 -31 0 -29 2 -30 30 -24 28 6 30 5 30 -22 0 -27 -3 -29 -30 -25 -26 4
-30 1 -30 -18 0 -21 3 -22 50 -18 49 5 50 5 50 -23 l0 -29 -90 0 c-90 0 -91 0
-79 21 7 14 10 56 7 115 l-4 94 83 0 83 0 0 -30z m181 11 c22 -17 23 -22 12
-50 -10 -28 -9 -34 13 -56 50 -50 -13 -105 -121 -105 l-60 0 0 115 0 115 66 0
c51 0 72 -5 90 -19z"/>
<path d="M2171 2245 c3 -25 -2 -34 -22 -40 -31 -10 -7 -29 61 -49 l55 -15 33
32 33 32 -28 20 c-29 22 -134 38 -132 20z"/>
<path d="M1962 2188 c-23 -18 -42 -35 -42 -39 0 -19 43 -37 103 -43 62 -6 67
-5 67 13 0 11 10 27 22 35 26 19 13 41 -31 49 -16 3 -39 9 -52 12 -18 4 -36
-3 -67 -27z"/>
<path d="M1723 2159 c-62 -64 117 -168 195 -113 34 23 28 58 -14 91 -30 22
-49 28 -103 31 -45 2 -70 0 -78 -9z"/>
<path d="M2133 2139 c-19 -19 -16 -43 10 -66 55 -51 140 -69 171 -37 14 13 14
19 1 43 -8 16 -21 31 -30 35 -9 3 -14 9 -12 13 3 5 -5 9 -16 10 -12 2 -42 5
-67 9 -30 3 -49 1 -57 -7z"/>
<path d="M2473 2123 c-52 -20 51 -113 125 -113 45 0 57 21 30 55 -35 44 -115
75 -155 58z"/>
<path d="M1970 2072 c0 -21 -29 -52 -48 -52 -17 0 -15 -17 5 -51 12 -21 25
-29 45 -29 14 0 39 -5 54 -10 26 -10 32 -7 82 43 l55 55 -34 31 c-30 27 -41
30 -96 31 -55 0 -63 -2 -63 -18z"/>
<path d="M2346 2055 c4 -18 0 -27 -20 -40 l-25 -17 20 -28 c14 -19 34 -30 59
-34 21 -3 45 -8 53 -12 10 -3 24 11 45 47 l30 52 -27 22 c-17 15 -45 24 -84
28 -56 5 -57 5 -51 -18z"/>
<path d="M2159 1983 c-75 -82 -74 -77 -41 -109 26 -27 33 -29 95 -26 67 3 67
3 67 32 0 18 8 34 22 44 l22 16 -20 26 c-11 16 -38 33 -64 40 -25 8 -45 14
-45 14 -1 0 -17 -17 -36 -37z"/>
<path d="M1896 1899 c-49 -38 -24 -99 57 -138 116 -56 222 8 155 94 -47 60
-161 84 -212 44z"/>
<path d="M2327 1902 c-10 -10 -17 -26 -17 -35 0 -49 122 -125 181 -112 77 17
45 109 -54 150 -49 20 -90 19 -110 -3z"/>
<path d="M3183 2040 c-10 -39 -9 -40 14 -40 22 0 24 3 18 33 -11 49 -20 51
-32 7z"/>
<path d="M4732 2073 c2 -22 9 -29 31 -31 26 -3 28 -1 25 25 -2 22 -9 29 -31
31 -26 3 -28 1 -25 -25z"/>
<path d="M4732 1983 c4 -33 37 -43 57 -19 20 24 6 46 -29 46 -28 0 -31 -3 -28
-27z"/>
</g>
</svg>
